<svg width="41" height="42" viewBox="0 0 41 42" fill="none" xmlns="http://www.w3.org/2000/svg">
<g id="vuesax/linear/book">
<g id="book">
<path id="Vector" d="M37.5575 29.3461V8.83535C37.5575 6.79618 35.8922 5.28379 33.87 5.45372H33.7681C30.1995 5.7596 24.7787 7.57786 21.7539 9.48109L21.465 9.66802C20.9722 9.97389 20.1566 9.97389 19.6638 9.66802L19.239 9.41312C16.2142 7.52688 10.8104 5.72561 7.2418 5.43673C5.21962 5.2668 3.57129 6.79618 3.57129 8.81836V29.3461C3.57129 30.9774 4.89675 32.5068 6.52809 32.7107L7.02089 32.7787C10.7084 33.2715 16.4011 35.1407 19.6638 36.925L19.7318 36.959C20.1906 37.2139 20.9213 37.2139 21.3631 36.959C24.6258 35.1577 30.3355 33.2715 34.04 32.7787L34.6007 32.7107C36.2321 32.5068 37.5575 30.9774 37.5575 29.3461Z" stroke="#606A8C" stroke-opacity="0.55" stroke-width="2.54897" stroke-linecap="round" stroke-linejoin="round"/>
<path id="Vector_2" d="M20.5645 10.2285V35.7182" stroke="#606A8C" stroke-opacity="0.55" stroke-width="2.54897" stroke-linecap="round" stroke-linejoin="round"/>
<path id="Vector_3" d="M13.343 15.3267H9.51953" stroke="#606A8C" stroke-opacity="0.55" stroke-width="2.54897" stroke-linecap="round" stroke-linejoin="round"/>
<path id="Vector_4" d="M14.6175 20.4243H9.51953" stroke="#606A8C" stroke-opacity="0.55" stroke-width="2.54897" stroke-linecap="round" stroke-linejoin="round"/>
</g>
</g>
</svg>
