<svg width="42" height="42" viewBox="0 0 42 42" fill="none" xmlns="http://www.w3.org/2000/svg">
<g id="vuesax/linear/element-1">
<g id="element-1">
<path id="Vector" d="M18.6794 34.9049V7.67701C18.6794 5.09208 17.5765 4.05811 14.8365 4.05811H7.87442C5.1344 4.05811 4.03149 5.09208 4.03149 7.67701V34.9049C4.03149 37.4899 5.1344 38.5238 7.87442 38.5238H14.8365C17.5765 38.5238 18.6794 37.4899 18.6794 34.9049Z" stroke="#606A8C" stroke-opacity="0.55" stroke-width="2.58493" stroke-linecap="round" stroke-linejoin="round"/>
<path id="Vector_2" d="M38.4983 19.3953V7.67701C38.4983 5.09208 37.3954 4.05811 34.6553 4.05811H27.6933C24.9532 4.05811 23.8503 5.09208 23.8503 7.67701V19.3953C23.8503 21.9803 24.9532 23.0142 27.6933 23.0142H34.6553C37.3954 23.0142 38.4983 21.9803 38.4983 19.3953Z" stroke="#606A8C" stroke-opacity="0.55" stroke-width="2.58493" stroke-linecap="round" stroke-linejoin="round"/>
<path id="Vector_3" d="M38.4983 34.9054V31.8035C38.4983 29.2185 37.3954 28.1846 34.6553 28.1846H27.6933C24.9532 28.1846 23.8503 29.2185 23.8503 31.8035V34.9054C23.8503 37.4903 24.9532 38.5243 27.6933 38.5243H34.6553C37.3954 38.5243 38.4983 37.4903 38.4983 34.9054Z" stroke="#606A8C" stroke-opacity="0.55" stroke-width="2.58493" stroke-linecap="round" stroke-linejoin="round"/>
</g>
</g>
</svg>
