<svg width="40" height="42" viewBox="0 0 40 42" fill="none" xmlns="http://www.w3.org/2000/svg">
<g id="Optimization">
<g id="search-normal">
<path id="Vector" d="M12.3696 32.1537C17.6326 32.1537 21.899 27.8872 21.899 22.6242C21.899 17.3612 17.6326 13.0947 12.3696 13.0947C7.10658 13.0947 2.84009 17.3612 2.84009 22.6242C2.84009 27.8872 7.10658 32.1537 12.3696 32.1537Z" stroke="#ED5AB3" stroke-width="2.83219" stroke-linecap="round" stroke-linejoin="round"/>
<path id="Vector_2" d="M24.0545 36.2371L17.9392 30.5083" stroke="#ED5AB3" stroke-width="2.83219" stroke-linecap="round" stroke-linejoin="round"/>
</g>
<g id="setting-2">
<path id="Vector_3" d="M22.0727 21.5309C24.3251 21.5309 26.8707 19.465 26.8707 17.2126C26.8707 14.9602 25.0448 13.1343 22.7924 13.1343C20.54 13.1343 18.9538 14.8136 19.6737 16.4929C20.8732 18.1722 21.3529 18.8919 22.0727 21.5309Z" stroke="#ED5AB3" stroke-width="2.26575" stroke-miterlimit="10" stroke-linecap="round" stroke-linejoin="round"/>
<path id="Vector_4" d="M11.7566 13.1343C14.2172 13.1343 15.2471 11.6932 14.01 9.55887C13.3031 8.33536 13.7245 6.74481 14.9616 6.03789L17.3134 4.69204C18.3874 4.0531 19.7741 4.43374 20.413 5.50771L20.5625 5.766C21.786 7.90034 23.798 7.90034 25.0351 5.766L25.1847 5.50771C25.8236 4.43374 27.2102 4.0531 28.2842 4.69204L30.6361 6.03789C31.8732 6.74481 32.2946 8.33536 31.5877 9.55887C30.3506 11.6932 31.3566 13.4333 33.8172 13.4333C35.231 13.4333 36.4001 14.5888 36.4001 16.0163V18.4089C36.4001 19.8227 35.2446 20.9918 33.8172 20.9918C31.3566 20.9918 30.3506 22.7319 31.5877 24.8663C32.2946 26.1034 31.8732 27.6803 30.6361 28.3873L28.2842 29.7331C27.2102 30.372 25.8236 29.9914 25.1847 28.9174L25.0351 28.6591C23.8116 26.5248 21.6302 25.8739 20.3931 28.0083L19.1936 29.4477" stroke="#ED5AB3" stroke-width="2.26575" stroke-miterlimit="10" stroke-linecap="round" stroke-linejoin="round"/>
</g>
</g>
</svg>
