<svg width="40" height="42" viewBox="0 0 40 42" fill="none" xmlns="http://www.w3.org/2000/svg">
<g id="Optimization">
<g id="search-normal">
<path id="Vector" d="M12.9699 32.1537C18.2329 32.1537 22.4994 27.8872 22.4994 22.6242C22.4994 17.3612 18.2329 13.0947 12.9699 13.0947C7.70692 13.0947 3.44043 17.3612 3.44043 22.6242C3.44043 27.8872 7.70692 32.1537 12.9699 32.1537Z" stroke="#606A8C" stroke-opacity="0.55" stroke-width="2.83219" stroke-linecap="round" stroke-linejoin="round"/>
<path id="Vector_2" d="M24.6543 36.2371L18.5391 30.5083" stroke="#606A8C" stroke-opacity="0.55" stroke-width="2.83219" stroke-linecap="round" stroke-linejoin="round"/>
</g>
<g id="setting-2">
<path id="Vector_3" d="M22.673 21.5309C24.9254 21.5309 27.4711 19.465 27.4711 17.2126C27.4711 14.9602 25.6451 13.1343 23.3927 13.1343C21.1403 13.1343 19.5542 14.8136 20.274 16.4929C21.4735 18.1722 21.9532 18.8919 22.673 21.5309Z" stroke="#606A8C" stroke-opacity="0.55" stroke-width="2.26575" stroke-miterlimit="10" stroke-linecap="round" stroke-linejoin="round"/>
<path id="Vector_4" d="M12.3574 13.1343C14.818 13.1343 15.8479 11.6932 14.6108 9.55887C13.9039 8.33536 14.3253 6.74481 15.5624 6.03789L17.9143 4.69204C18.9882 4.0531 20.3749 4.43374 21.0138 5.50771L21.1634 5.766C22.3869 7.90034 24.3989 7.90034 25.636 5.766L25.7855 5.50771C26.4244 4.43374 27.8111 4.0531 28.885 4.69204L31.2369 6.03789C32.474 6.74481 32.8954 8.33536 32.1885 9.55887C30.9514 11.6932 31.9574 13.4333 34.418 13.4333C35.8318 13.4333 37.001 14.5888 37.001 16.0163V18.4089C37.001 19.8227 35.8454 20.9918 34.418 20.9918C31.9574 20.9918 30.9514 22.7319 32.1885 24.8663C32.8954 26.1034 32.474 27.6803 31.2369 28.3873L28.885 29.7331C27.8111 30.372 26.4244 29.9914 25.7855 28.9174L25.636 28.6591C24.4125 26.5248 22.231 25.8739 20.9939 28.0083L19.7944 29.4477" stroke="#606A8C" stroke-opacity="0.55" stroke-width="2.26575" stroke-miterlimit="10" stroke-linecap="round" stroke-linejoin="round"/>
</g>
</g>
</svg>
